<svg width="31" height="31" viewBox="0 0 31 31" fill="none" xmlns="http://www.w3.org/2000/svg">
<path d="M27.8839 25.1875L23.25 19.1328V10.3333C23.25 6.05469 19.7787 2.58333 15.5 2.58333C11.2214 2.58333 7.75 6.05469 7.75 10.3333V19.1328L3.11615 25.1875H11.6734C11.9802 27.012 13.5787 28.4167 15.5 28.4167C17.4214 28.4167 19.0036 27.012 19.3266 25.1875H27.8839ZM9.04167 19.6172V10.3333C9.04167 6.7651 11.9318 3.875 15.5 3.875C19.0682 3.875 21.9583 6.7651 21.9583 10.3333V19.6172L25.0745 23.8958H5.92553L9.04167 19.6172ZM15.5 27.125C14.3052 27.125 13.288 26.3016 12.9974 25.1875H17.9865C17.712 26.3016 16.6948 27.125 15.5 27.125Z" fill="black"/>
</svg>
