<svg width="35" height="35" viewBox="0 0 35 35" fill="none" xmlns="http://www.w3.org/2000/svg">
<path d="M29.1667 6.47132L29.0938 5.90622L28.5287 5.8333C28.4011 5.81507 25.3021 5.46872 21.3464 5.92445C16.0599 6.54424 11.7761 8.34893 8.96877 11.138C5.34117 14.7656 5.32294 18.8125 5.94273 21.5651C6.41669 23.6797 7.32815 25.3385 7.82033 26.1406L5.32294 28.638L6.362 29.6771L8.85939 27.1797C9.66148 27.6718 11.3203 28.5833 13.4349 29.0573C14.237 29.2396 15.1485 29.3672 16.1146 29.3672C18.5026 29.3672 21.2917 28.6198 23.862 26.0312C26.6693 23.2239 28.474 18.9583 29.0755 13.6536C29.5313 9.69789 29.1849 6.59893 29.1667 6.47132ZM22.8229 25.0104C20.3073 27.526 17.263 28.4192 13.7995 27.6536C12.1224 27.289 10.7188 26.5963 9.91669 26.1224L12.7057 23.3333H20.4167V21.875H14.1641L20.7266 15.3125H24.7917V13.8541H22.1849L23.862 12.1771L22.8229 11.138L16.7709 17.1901V12.3958H15.3125V18.6484L8.87762 25.0833C8.4219 24.2994 7.74742 22.9323 7.3646 21.2552C6.58075 17.7734 7.45575 14.7109 9.9896 12.1771C15.4219 6.74476 25.2656 7.05466 27.763 7.23695C27.9453 9.73435 28.2552 19.5599 22.8229 25.0104Z" fill="#00884A"/>
</svg>
