<svg width="29" height="29" viewBox="0 0 29 29" fill="none" xmlns="http://www.w3.org/2000/svg">
<path d="M19.836 10.5398L19.5008 10.0371L17.7741 11.1884C17.3391 10.1617 17.015 9.01775 16.6998 7.90488C15.9002 5.08251 15.145 2.41663 12.6875 2.41663H12.0833V3.02079C12.0833 5.80691 10.8496 7.92995 9.54358 10.1776C8.11895 12.6292 6.64584 15.1642 6.64584 18.7291C6.64584 23.28 9.94913 26.5833 14.5 26.5833C19.0509 26.5833 22.3542 23.28 22.3542 18.7291C22.3542 15.6977 21.0489 12.3591 19.836 10.5398ZM11.4792 21.1458C11.4792 18.7427 12.1481 16.8334 13.6276 15.0783C14.0701 16.1703 14.7997 17.1742 15.5106 18.1526C16.5445 19.575 17.5208 20.9188 17.5208 22.3541C17.5208 24.0198 16.1657 25.375 14.5 25.375C12.7213 25.375 11.4792 23.6359 11.4792 21.1458ZM18.2181 24.3681C18.5543 23.7501 18.73 23.0577 18.7292 22.3541C18.7292 20.5261 17.59 18.9584 16.4882 17.4423C15.5892 16.2052 14.7402 15.0368 14.4884 13.7772L14.267 12.6704L13.4685 13.4685C11.2571 15.68 10.2708 18.0479 10.2708 21.1458C10.2708 22.4833 10.5753 23.6513 11.1103 24.559C9.09921 23.4703 7.85418 21.369 7.85418 18.7291C7.85418 15.4899 9.24406 13.0978 10.5883 10.7848C11.8139 8.67564 13.0778 6.50019 13.2674 3.73431C14.3064 4.15723 14.8432 5.78485 15.5372 8.2343C15.9332 9.63249 16.3429 11.0784 16.9804 12.3535L17.2866 12.9657L19.1494 11.7238C20.1866 13.5121 21.1458 16.3185 21.1458 18.7291C21.1458 21.2222 20.0352 23.2347 18.2181 24.3681Z" fill="#9E2896"/>
</svg>
