<svg width="33" height="33" viewBox="0 0 33 33" fill="none" xmlns="http://www.w3.org/2000/svg">
<path d="M24.75 30.25H23.375V16.5H19.2502V5.5C19.2502 3.98372 20.6688 2.75 22.4127 2.75H24.75V30.25ZM20.6252 15.125H23.375V4.125H22.4125C21.427 4.125 20.6252 4.74186 20.6252 5.5V15.125ZM12.3752 2.75H11.0002L11 8.93887H12.375L12.3752 2.75ZM16.5 2.7512V8.32631C16.5 9.25513 16.0325 10.28 15.2171 11.1382C14.4054 11.9924 13.5499 12.375 13.0625 12.375C12.5751 12.375 11.7196 11.9924 10.9079 11.138C10.0925 10.2798 9.625 9.25513 9.625 8.32631V2.75H8.25V8.32631C8.25 10.7719 10.4418 13.1677 12.375 13.6575L12.3747 30.2481H13.7497L13.75 13.6536C14.5647 13.4405 15.459 12.8801 16.2142 12.085C17.2695 10.9742 17.875 9.60403 17.875 8.32631V2.7512H16.5ZM15.1252 2.75H13.7502L13.7498 8.93887H15.1248L15.1252 2.75Z" fill="#18837E"/>
</svg>
