<svg width="39" height="39" viewBox="0 0 39 39" fill="none" xmlns="http://www.w3.org/2000/svg">
<path d="M31.6875 22.75V20.3125H7.3125V22.75H3.25V24.375H7.3125V33.3125C7.3125 34.6566 8.40592 35.75 9.75 35.75H29.25C30.5941 35.75 31.6875 34.6566 31.6875 33.3125V24.375H35.75V22.75H31.6875ZM30.0625 33.3125C30.0625 33.7606 29.6981 34.125 29.25 34.125H9.75C9.30191 34.125 8.9375 33.7606 8.9375 33.3125V21.9375H30.0625V33.3125ZM33.3125 17.0625H25.1875V15.4375C25.1875 14.0934 24.0941 13 22.75 13H16.25C14.9059 13 13.8125 14.0934 13.8125 15.4375V17.0625H5.6875V18.6875H33.3125V17.0625ZM15.4375 15.4375C15.4375 14.9894 15.8019 14.625 16.25 14.625H22.75C23.1981 14.625 23.5625 14.9894 23.5625 15.4375V17.0625H15.4375V15.4375Z" fill="#007BC0"/>
</svg>
