<svg width="36" height="39" viewBox="0 0 36 39" fill="none" xmlns="http://www.w3.org/2000/svg">
<path d="M18 27.5354C13.8645 27.5354 10.5 23.9727 10.5 19.5936C10.5 15.2145 13.8645 11.6518 18 11.6518C22.1355 11.6518 25.5 15.2145 25.5 19.5936C25.5 23.9727 22.1355 27.5354 18 27.5354ZM18 13.2401C14.6916 13.2401 12 16.0903 12 19.5936C12 23.0969 14.6916 25.9471 18 25.9471C21.3084 25.9471 24 23.0969 24 19.5936C24 16.0903 21.3084 13.2401 18 13.2401ZM18.75 3.70996H17.25V10.0634H18.75V3.70996ZM18.75 29.1238H17.25V35.4772H18.75V29.1238ZM33 18.7994H27V20.3878H33V18.7994ZM9 18.7994H3V20.3878H9V18.7994ZM29.1369 8.92377L28.0763 7.80059L23.8335 12.2931L24.8944 13.4165L29.1369 8.92377ZM12.1663 26.8941L11.1056 25.7707L6.86306 30.2634L7.92375 31.3866L12.1663 26.8941ZM29.1369 30.2634L24.8944 25.7707L23.8335 26.8941L28.0763 31.3866L29.1369 30.2634ZM12.1663 12.2931L7.92375 7.80059L6.86306 8.92377L11.1056 13.4165L12.1663 12.2931Z" fill="white"/>
</svg>
