<svg width="25" height="25" viewBox="0 0 25 25" fill="none" xmlns="http://www.w3.org/2000/svg">
<path d="M2.08325 19.2702H7.29159V20.3119H2.08325V19.2702ZM22.246 10.0709L21.8777 10.4392L21.8749 10.4365L13.287 19.0244L8.13826 20.3116L9.42546 15.1628L18.3789 6.20386C19.445 5.13778 21.1798 5.13778 22.2459 6.20386C23.312 7.27007 23.312 9.00474 22.246 10.0709ZM13.0208 17.8175L20.0975 10.7407L17.7146 8.34681L10.6323 15.429L13.0208 17.8175ZM9.56991 18.8799L12.002 18.2719L10.1779 16.4478L9.56991 18.8799ZM21.5093 6.94041C20.8767 6.30775 19.8637 6.28155 19.1995 6.86189L18.4511 7.61024L20.8341 10.0042L21.5879 9.25034C22.1682 8.5862 22.142 7.57314 21.5093 6.94041Z" fill="black"/>
</svg>
