<svg width="43" height="65" viewBox="0 0 43 65" fill="none" xmlns="http://www.w3.org/2000/svg">
<path d="M35.477 21.8485L34.5755 20.4965L29.9313 23.593C28.7613 20.8317 27.8895 17.7547 27.0416 14.7615C24.8909 7.17031 22.8597 0 16.25 0H14.625V1.625C14.625 9.11869 11.3068 14.8289 7.79391 20.8743C3.96216 27.4682 0 34.2867 0 43.875C0 56.1153 8.88469 65 21.125 65C33.3653 65 42.25 56.1153 42.25 43.875C42.25 35.7216 38.7392 26.7418 35.477 21.8485ZM13 50.375C13 43.9116 14.7993 38.7762 18.7785 34.0555C19.9688 36.9927 21.931 39.6927 23.8432 42.3243C26.624 46.15 29.25 49.7644 29.25 53.625C29.25 58.1051 25.6051 61.75 21.125 61.75C16.341 61.75 13 57.0724 13 50.375ZM31.1253 59.0419C32.0296 57.3798 32.5023 55.5172 32.5 53.625C32.5 48.7082 29.4361 44.4917 26.4725 40.4138C24.0545 37.0866 21.7709 33.9438 21.0937 30.5561L20.4982 27.5791L18.3507 29.7257C12.4028 35.674 9.75 42.0428 9.75 50.375C9.75 53.9723 10.569 57.1139 12.0079 59.5554C6.59872 56.6272 3.25 50.9754 3.25 43.875C3.25 35.1626 6.98831 28.7288 10.6039 22.5075C13.9003 16.8346 17.2998 10.9834 17.8096 3.54413C20.6042 4.68163 22.048 9.05937 23.9147 15.6475C24.9799 19.4082 26.0817 23.2972 27.7964 26.7268L28.6199 28.3733L33.6302 25.0331C36.4199 29.8431 39 37.3912 39 43.875C39 50.5806 36.0128 55.9934 31.1253 59.0419Z" fill="#9E2896"/>
</svg>
