<svg width="64" height="99" viewBox="0 0 64 99" fill="none" xmlns="http://www.w3.org/2000/svg">
<path d="M53.6915 33.0659L52.3272 31.0198L45.2985 35.706C43.5278 31.527 42.2084 26.8703 40.9252 22.3403C37.6704 10.8517 34.5962 0 24.593 0H22.1337V2.4593C22.1337 13.8004 17.1118 22.4424 11.7954 31.5916C5.99639 41.5708 0 51.89 0 66.4011C0 84.9258 13.4462 98.3721 31.9709 98.3721C50.4956 98.3721 63.9418 84.9258 63.9418 66.4011C63.9418 54.0616 58.6285 40.4715 53.6915 33.0659ZM19.6744 76.2383C19.6744 66.4565 22.3975 58.6845 28.4197 51.5402C30.2211 55.9854 33.1907 60.0715 36.0847 64.0544C40.2932 69.8442 44.2674 75.3143 44.2674 81.157C44.2674 87.9372 38.7512 93.4535 31.9709 93.4535C24.7307 93.4535 19.6744 86.3744 19.6744 76.2383ZM47.1055 89.355C48.4742 86.8395 49.1895 84.0207 49.186 81.157C49.186 73.7157 44.549 67.3344 40.0639 61.1628C36.4044 56.1274 32.9485 51.3711 31.9236 46.2441L31.0222 41.7387L27.7723 44.9874C18.7706 53.9897 14.7558 63.6283 14.7558 76.2383C14.7558 81.6826 15.9953 86.4371 18.173 90.1322C9.98661 85.7005 4.9186 77.1471 4.9186 66.4011C4.9186 53.2156 10.5762 43.4786 16.0482 34.0632C21.0369 25.4778 26.1817 16.6224 26.9533 5.36374C31.1827 7.08525 33.3678 13.7106 36.1929 23.6812C37.805 29.3727 39.4724 35.2584 42.0676 40.4487L43.3138 42.9406L50.8965 37.8855C55.1185 45.1651 59.0232 56.5885 59.0232 66.4011C59.0232 76.5495 54.5024 84.7414 47.1055 89.355Z" fill="white"/>
</svg>
