<svg width="72" height="74" viewBox="0 0 72 74" fill="none" xmlns="http://www.w3.org/2000/svg">
<path d="M71.5704 2.40983L71.3515 0.666472L69.6553 0.441522C69.2723 0.385284 59.9703 -0.683226 48.0966 0.722709C32.2286 2.63478 19.37 8.20228 10.9435 16.8066C0.0547176 27.9978 -1.30457e-06 40.4825 1.86039 48.9744C3.28305 55.4979 6.01892 60.6155 7.49629 63.0899L0 70.7945L3.11889 74L10.6152 66.2955C13.0227 67.8139 18.002 70.6258 24.3493 72.0879C26.7568 72.6503 29.4927 73.044 32.3927 73.044C39.5607 73.044 47.9325 70.7382 55.6476 62.7525C64.0741 54.092 69.4911 40.9324 71.2968 24.5674C72.6648 12.3638 71.6251 2.80349 71.5704 2.40983ZM52.5287 59.6032C44.9777 67.364 35.8399 70.1196 25.4436 67.7576C20.4096 66.6329 16.1964 64.4959 13.7888 63.0337L22.1606 54.4294H45.306V49.9304H26.538L46.2362 29.685H58.4382V25.186H50.6136L55.6476 20.0121L52.5287 16.8066L34.3626 35.4774V20.687H29.9852V39.9764L10.6699 59.8282C9.30196 57.41 7.27742 53.1922 6.12835 48.0183C3.7755 37.277 6.40194 27.8291 14.0077 20.0121C30.3135 3.25339 59.8609 4.20943 67.3572 4.7718C67.9043 12.4763 68.8345 42.7883 52.5287 59.6032Z" fill="white"/>
</svg>
