<svg width="72" height="78" viewBox="0 0 72 78" fill="none" xmlns="http://www.w3.org/2000/svg">
<path d="M71.5704 2.91686L71.3515 1.10943L69.6553 0.876208C69.2723 0.817903 59.9703 -0.289882 48.0966 1.16773C32.2286 3.15008 19.37 8.92222 10.9435 17.8428C0.0547176 29.4454 -1.30457e-06 42.389 1.86039 51.193C3.28305 57.9563 6.01892 63.262 7.49629 65.8274L0 73.8151L3.11889 77.1385L10.6152 69.1507C13.0227 70.725 18.002 73.6402 24.3493 75.1561C26.7568 75.7391 29.4927 76.1473 32.3927 76.1473C39.5607 76.1473 47.9325 73.7568 55.6476 65.4776C64.0741 56.4987 69.4911 42.8554 71.2968 25.8888C72.6648 13.2368 71.6251 3.325 71.5704 2.91686ZM52.5287 62.2125C44.9777 70.2585 35.8399 73.1154 25.4436 70.6666C20.4096 69.5006 16.1964 67.285 13.7888 65.7691L22.1606 56.8485H45.306V52.1841H26.538L46.2362 31.1945H58.4382V26.5302H50.6136L55.6476 21.1662L52.5287 17.8428L34.3626 37.1999V21.8658H29.9852V41.8642L10.6699 62.4457C9.30196 59.9386 7.27742 55.5658 6.12835 50.2018C3.7755 39.0656 6.40194 29.2705 14.0077 21.1662C30.3135 3.79143 59.8609 4.78261 67.3572 5.36565C67.9043 13.3534 68.8345 44.7795 52.5287 62.2125Z" fill="#00884A"/>
</svg>
