<svg width="93" height="65" viewBox="0 0 93 65" fill="none" xmlns="http://www.w3.org/2000/svg">
<path d="M81.0496 27.4568V20.5907H12.3879V27.4568H0.944336V32.0343H12.3879V57.2102C12.3879 60.9963 15.468 64.0764 19.2541 64.0764H74.1834C77.9696 64.0764 81.0496 60.9963 81.0496 57.2102V32.0343H92.4932V27.4568H81.0496ZM76.4722 57.2102C76.4722 58.4725 75.4457 59.4989 74.1834 59.4989H19.2541C17.9919 59.4989 16.9654 58.4725 16.9654 57.2102V25.1681H76.4722V57.2102ZM85.627 11.4358H62.7398V6.85835C62.7398 3.07223 59.6598 -0.0078125 55.8737 -0.0078125H37.5639C33.7778 -0.0078125 30.6977 3.07223 30.6977 6.85835V11.4358H7.8105V16.0132H85.627V11.4358ZM35.2752 6.85835C35.2752 5.59612 36.3017 4.56963 37.5639 4.56963H55.8737C57.1359 4.56963 58.1624 5.59612 58.1624 6.85835V11.4358H35.2752V6.85835Z" fill="#007BC0"/>
</svg>
