<svg width="102" height="72" viewBox="0 0 102 72" fill="none" xmlns="http://www.w3.org/2000/svg">
<path d="M88.9583 30.5V22.875H12.7083V30.5H0V35.5833H12.7083V63.5417C12.7083 67.7462 16.1288 71.1667 20.3333 71.1667H81.3333C85.5379 71.1667 88.9583 67.7462 88.9583 63.5417V35.5833H101.667V30.5H88.9583ZM83.875 63.5417C83.875 64.9434 82.7351 66.0833 81.3333 66.0833H20.3333C18.9316 66.0833 17.7917 64.9434 17.7917 63.5417V27.9583H83.875V63.5417ZM94.0417 12.7083H68.625V7.625C68.625 3.42045 65.2046 0 61 0H40.6667C36.4621 0 33.0417 3.42045 33.0417 7.625V12.7083H7.625V17.7917H94.0417V12.7083ZM38.125 7.625C38.125 6.22327 39.2649 5.08333 40.6667 5.08333H61C62.4017 5.08333 63.5417 6.22327 63.5417 7.625V12.7083H38.125V7.625Z" fill="white"/>
</svg>
