<svg width="39" height="65" viewBox="0 0 39 65" fill="none" xmlns="http://www.w3.org/2000/svg">
<path d="M38.8 64.6667H35.5667V32.3333H25.8671V6.46667C25.8671 2.90111 29.2031 0 33.3037 0H38.8V64.6667ZM29.1004 29.1H35.5667V3.23333H33.3033C30.9858 3.23333 29.1004 4.68389 29.1004 6.46667V29.1ZM9.7004 0H6.46707L6.46667 14.5532H9.7L9.7004 0ZM19.4 0.00282915V13.1128C19.4 15.2969 18.3007 17.7069 16.3833 19.7249C14.4744 21.7337 12.4629 22.6333 11.3167 22.6333C10.1705 22.6333 8.15891 21.7337 6.25003 19.7245C4.33267 17.7065 3.23333 15.2969 3.23333 13.1128V0H0V13.1128C0 18.8637 5.15393 24.4973 9.7 25.6492L9.69919 64.6622H12.9325L12.9333 25.6399C14.8491 25.1388 16.952 23.8212 18.7279 21.9515C21.2095 19.3394 22.6333 16.1174 22.6333 13.1128V0.00282915H19.4ZM16.1671 0H12.9337L12.9329 14.5532H16.1663L16.1671 0Z" fill="#12818F"/>
</svg>
