<svg width="52" height="87" viewBox="0 0 52 87" fill="none" xmlns="http://www.w3.org/2000/svg">
<path d="M52 86.6667H47.6667V43.3333H34.6672V8.66667C34.6672 3.88808 39.1381 0 44.6339 0H52V86.6667ZM39.0005 39H47.6667V4.33333H44.6333C41.5274 4.33333 39.0005 6.27737 39.0005 8.66667V39ZM13.0005 0H8.66721L8.66667 19.5043H13L13.0005 0ZM26 0.00379165V17.5738C26 20.501 24.5267 23.731 21.957 26.4355C19.3987 29.1276 16.7028 30.3333 15.1667 30.3333C13.6305 30.3333 10.9346 29.1276 8.37633 26.435C5.80667 23.7304 4.33333 20.501 4.33333 17.5738V0H0V17.5738C0 25.2812 6.90733 32.8315 13 34.3752L12.9989 86.6607H17.3323L17.3333 34.3628C19.9008 33.6911 22.7191 31.9253 25.0992 29.4195C28.425 25.9188 30.3333 21.6006 30.3333 17.5738V0.00379165H26ZM21.6672 0H17.3339L17.3328 19.5043H21.6661L21.6672 0Z" fill="white"/>
</svg>
