<svg width="68" height="48" viewBox="0 0 68 48" fill="none" xmlns="http://www.w3.org/2000/svg">
<rect width="68" height="48" fill="#EFF1F2"/>
<path d="M34.8705 29.8376C34.8705 30.587 34.2497 31.208 33.5002 31.208C32.7294 31.208 32.1298 30.6085 32.1298 29.8376C32.1298 29.0668 32.7294 28.4673 33.5002 28.4673C34.2497 28.4673 34.8705 29.0882 34.8705 29.8376ZM32.5153 20.5877V15.7913H34.4852V20.5877L33.9712 26.4974H33.0291L32.5153 20.5877ZM33.5002 9.62467C41.1509 9.62467 47.3752 15.849 47.3752 23.4997C47.3752 31.1504 41.1509 37.3747 33.5002 37.3747C25.8495 37.3747 19.6252 31.1504 19.6252 23.4997C19.6252 15.849 25.8495 9.62467 33.5002 9.62467ZM33.5002 8.08301C24.9858 8.08301 18.0835 14.9853 18.0835 23.4997C18.0835 32.014 24.9858 38.9163 33.5002 38.9163C42.0145 38.9163 48.9168 32.014 48.9168 23.4997C48.9168 14.9853 42.0145 8.08301 33.5002 8.08301Z" fill="#9E2896"/>
</svg>
