<svg width="68" height="48" viewBox="0 0 68 48" fill="none" xmlns="http://www.w3.org/2000/svg">
<rect width="68" height="48" fill="#EFF1F2"/>
<path d="M43.3539 37.833C43.2282 37.833 43.1019 37.8065 42.9833 37.7527L33.4999 33.4421L24.0164 37.7527C23.7154 37.8895 23.363 37.8496 23.1002 37.6478C22.8377 37.4462 22.7076 37.1164 22.762 36.7899L24.4779 26.4947L16.7414 18.7582C16.5042 18.5209 16.4193 18.1708 16.5218 17.8513C16.6241 17.5318 16.8965 17.2962 17.2276 17.241L27.5474 15.521L32.7143 6.04984C32.8712 5.76202 33.1728 5.58301 33.5006 5.58301C33.8284 5.58301 34.1302 5.76213 34.2871 6.04995L39.4525 15.521L49.7722 17.241C50.1032 17.2962 50.3756 17.5318 50.4779 17.8513C50.5804 18.1708 50.4955 18.5209 50.2584 18.7582L42.5218 26.4947L44.2377 36.7899C44.2921 37.1164 44.162 37.4462 43.8995 37.6478C43.7402 37.77 43.5478 37.833 43.3539 37.833ZM33.4999 31.5622C33.6263 31.5622 33.7528 31.589 33.8706 31.6424L42.194 35.4258L40.6787 26.3345C40.6312 26.0491 40.7244 25.7583 40.9289 25.5537L47.7605 18.7222L38.7276 17.2167C38.4559 17.1714 38.2203 17.0037 38.0884 16.7619L33.5005 8.34968L28.9112 16.762C28.7795 17.0038 28.5437 17.1714 28.2722 17.2167L19.2392 18.7222L26.0709 25.5537C26.2753 25.7583 26.3685 26.0491 26.3211 26.3345L24.8057 35.4258L33.1291 31.6424C33.2469 31.589 33.3734 31.5622 33.4999 31.5622Z" fill="#18837E"/>
</svg>
